<?xml version="1.0" encoding="UTF-8"?>
<svg id="Primary_Outline" data-name="Primary Outline" xmlns="http://www.w3.org/2000/svg" viewBox="0 0 64 64">
  <defs>
    <style>
      .cls-1 {
        fill: #000;
        stroke-width: 0px;
      }
    </style>
  </defs>
  <path class="cls-1" d="M61.75,20.51v4.95c0,.41-.34.75-.75.75s-.75-.34-.75-.75v-4.95c0-1.24-1.01-2.26-2.26-2.26h-4.89c-.41,0-.75-.34-.75-.75s.34-.75.75-.75h4.89c2.07,0,3.76,1.69,3.76,3.76ZM3,26.2c.41,0,.75-.34.75-.75v-4.95c0-1.24,1.01-2.26,2.26-2.26h4.89c.41,0,.75-.34.75-.75s-.34-.75-.75-.75h-4.89c-2.07,0-3.76,1.69-3.76,3.76v4.95c0,.41.34.75.75.75ZM10.89,45.75h-4.89c-1.24,0-2.26-1.01-2.26-2.26v-4.95c0-.41-.34-.75-.75-.75s-.75.34-.75.75v4.95c0,2.07,1.69,3.76,3.76,3.76h4.89c.41,0,.75-.34.75-.75s-.34-.75-.75-.75ZM61,37.8c-.41,0-.75.34-.75.75v4.95c0,1.24-1.01,2.26-2.26,2.26h-4.89c-.41,0-.75.34-.75.75s.34.75.75.75h4.89c2.07,0,3.76-1.69,3.76-3.76v-4.95c0-.41-.34-.75-.75-.75ZM22.21,22.47v19.49c0,1.43-1.17,2.6-2.6,2.6h-.52c-1.43,0-2.6-1.17-2.6-2.6v-19.49c0-1.43,1.17-2.6,2.6-2.6h.52c1.43,0,2.6,1.17,2.6,2.6ZM30.55,26.34v11.76c0,1.43-1.17,2.6-2.6,2.6h-.52c-1.43,0-2.6-1.17-2.6-2.6v-11.76c0-1.43,1.17-2.6,2.6-2.6h.52c1.43,0,2.6,1.17,2.6,2.6ZM39.76,26.34v11.76c0,1.43-1.17,2.6-2.6,2.6h-2.24c-1.43,0-2.6-1.17-2.6-2.6v-11.76c0-1.43,1.17-2.6,2.6-2.6h2.24c1.43,0,2.6,1.17,2.6,2.6ZM14.71,26.34v11.76c0,1.43-1.17,2.6-2.6,2.6h-2.24c-1.43,0-2.6-1.17-2.6-2.6v-11.76c0-1.43,1.17-2.6,2.6-2.6h2.24c1.43,0,2.6,1.17,2.6,2.6ZM46.99,22.47v19.49c0,1.43-1.17,2.6-2.6,2.6s-2.6-1.17-2.6-2.6v-19.49c0-1.43,1.17-2.6,2.6-2.6s2.6,1.17,2.6,2.6ZM52.47,40.7c-1.43,0-2.6-1.17-2.6-2.6v-11.76c0-1.43,1.17-2.6,2.6-2.6h.52c1.43,0,2.6,1.17,2.6,2.6v11.76c0,1.43-1.17,2.6-2.6,2.6h-.52Z"/>
</svg>